{
    "asset" : {
        "generator" : "Khronos glTF Blender I/O v1.3.48",
        "version" : "2.0"
    },
    "scene" : 0,
    "scenes" : [
        {
            "name" : "Scene",
            "nodes" : [
                0,
                1,
                2,
                3,
                4,
                5,
                6,
                7,
                8,
                9,
                10
            ]
        }
    ],
    "nodes" : [
        {
            "name" : "Light",
            "rotation" : [
                0.16907575726509094,
                0.7558803558349609,
                -0.27217137813568115,
                0.570947527885437
            ],
            "translation" : [
                4.076245307922363,
                5.903861999511719,
                -1.0054539442062378
            ]
        },
        {
            "name" : "Camera",
            "rotation" : [
                0.483536034822464,
                0.33687159419059753,
                -0.20870360732078552,
                0.7804827094078064
            ],
            "translation" : [
                7.358891487121582,
                4.958309173583984,
                6.925790786743164
            ]
        },
        {
            "mesh" : 0,
            "name" : "Plane"
        },
        {
            "mesh" : 1,
            "name" : "Plane.001",
            "rotation" : [
                0,
                0,
                0.1736481934785843,
                0.9848078489303589
            ],
            "translation" : [
                3,
                0.3499999940395355,
                0
            ]
        },
        {
            "mesh" : 2,
            "name" : "Plane.002",
            "rotation" : [
                0.1736481934785843,
                0,
                0,
                0.9848078489303589
            ],
            "translation" : [
                -0.025655031204223633,
                0.35999998450279236,
                -3.0517382621765137
            ]
        },
        {
            "mesh" : 3,
            "name" : "Plane.003",
            "rotation" : [
                0,
                0,
                -0.1736481934785843,
                0.9848078489303589
            ],
            "translation" : [
                -3.077393054962158,
                0.3499999940395355,
                0
            ]
        },
        {
            "mesh" : 4,
            "name" : "Plane.004",
            "rotation" : [
                -0.1736481934785843,
                0,
                0,
                0.9848078489303589
            ],
            "translation" : [
                0.00042819976806640625,
                0.3499999940395355,
                3.0517382621765137
            ]
        },
        {
            "mesh" : 5,
            "name" : "Plane.005",
            "rotation" : [
                -0.1710100620985031,
                -0.030153688043355942,
                0.1710100620985031,
                0.9698463082313538
            ],
            "translation" : [
                2.8304591178894043,
                1,
                2.9474053382873535
            ]
        },
        {
            "mesh" : 6,
            "name" : "Plane.006",
            "rotation" : [
                0.1710100620985031,
                0.030153688043355942,
                0.1710100620985031,
                0.9698463082313538
            ],
            "translation" : [
                2.8435006141662598,
                1,
                -3.012613296508789
            ]
        },
        {
            "mesh" : 7,
            "name" : "Plane.007",
            "rotation" : [
                0.1710100620985031,
                -0.030153688043355942,
                -0.1710100620985031,
                0.9698463082313538
            ],
            "translation" : [
                -2.8261117935180664,
                1,
                -3.0008201599121094
            ]
        },
        {
            "mesh" : 8,
            "name" : "Plane.008",
            "rotation" : [
                -0.1710100620985031,
                0.030153688043355942,
                -0.1710100620985031,
                0.9698463082313538
            ],
            "translation" : [
                -2.8203635215759277,
                1,
                2.941695213317871
            ]
        }
    ],
    "materials" : [
        {
            "doubleSided" : true,
            "emissiveFactor" : [
                0,
                0,
                0
            ],
            "name" : "Material.009",
            "pbrMetallicRoughness" : {
                "baseColorTexture" : {
                    "index" : 0,
                    "texCoord" : 0
                },
                "metallicFactor" : 0,
                "roughnessFactor" : 0.5
            }
        },
        {
            "doubleSided" : true,
            "emissiveFactor" : [
                0,
                0,
                0
            ],
            "name" : "Material.007",
            "pbrMetallicRoughness" : {
                "baseColorTexture" : {
                    "index" : 1,
                    "texCoord" : 0
                },
                "metallicFactor" : 0,
                "roughnessFactor" : 0.5
            }
        },
        {
            "doubleSided" : true,
            "emissiveFactor" : [
                0,
                0,
                0
            ],
            "name" : "Material.005",
            "pbrMetallicRoughness" : {
                "baseColorTexture" : {
                    "index" : 2,
                    "texCoord" : 0
                },
                "metallicFactor" : 0,
                "roughnessFactor" : 0.5
            }
        },
        {
            "doubleSided" : true,
            "emissiveFactor" : [
                0,
                0,
                0
            ],
            "name" : "Material.002",
            "pbrMetallicRoughness" : {
                "baseColorTexture" : {
                    "index" : 3,
                    "texCoord" : 0
                },
                "metallicFactor" : 0,
                "roughnessFactor" : 0.5
            }
        },
        {
            "doubleSided" : true,
            "emissiveFactor" : [
                0,
                0,
                0
            ],
            "name" : "Material.004",
            "pbrMetallicRoughness" : {
                "baseColorTexture" : {
                    "index" : 4,
                    "texCoord" : 0
                },
                "metallicFactor" : 0,
                "roughnessFactor" : 0.5
            }
        },
        {
            "doubleSided" : true,
            "emissiveFactor" : [
                0,
                0,
                0
            ],
            "name" : "Material.006",
            "pbrMetallicRoughness" : {
                "baseColorTexture" : {
                    "index" : 5,
                    "texCoord" : 0
                },
                "metallicFactor" : 0,
                "roughnessFactor" : 0.5
            }
        },
        {
            "doubleSided" : true,
            "emissiveFactor" : [
                0,
                0,
                0
            ],
            "name" : "Material.008",
            "pbrMetallicRoughness" : {
                "baseColorTexture" : {
                    "index" : 6,
                    "texCoord" : 0
                },
                "metallicFactor" : 0,
                "roughnessFactor" : 0.5
            }
        },
        {
            "doubleSided" : true,
            "emissiveFactor" : [
                0,
                0,
                0
            ],
            "name" : "Material.003",
            "pbrMetallicRoughness" : {
                "baseColorTexture" : {
                    "index" : 7,
                    "texCoord" : 0
                },
                "metallicFactor" : 0,
                "roughnessFactor" : 0.5
            }
        },
        {
            "doubleSided" : true,
            "emissiveFactor" : [
                0,
                0,
                0
            ],
            "name" : "Material.001",
            "pbrMetallicRoughness" : {
                "baseColorTexture" : {
                    "index" : 8,
                    "texCoord" : 0
                },
                "metallicFactor" : 0,
                "roughnessFactor" : 0.5
            }
        }
    ],
    "meshes" : [
        {
            "name" : "Plane",
            "primitives" : [
                {
                    "attributes" : {
                        "POSITION" : 0,
                        "NORMAL" : 1,
                        "TEXCOORD_0" : 2
                    },
                    "indices" : 3,
                    "material" : 0
                }
            ]
        },
        {
            "name" : "Plane.001",
            "primitives" : [
                {
                    "attributes" : {
                        "POSITION" : 4,
                        "NORMAL" : 5,
                        "TEXCOORD_0" : 6
                    },
                    "indices" : 3,
                    "material" : 1
                }
            ]
        },
        {
            "name" : "Plane.002",
            "primitives" : [
                {
                    "attributes" : {
                        "POSITION" : 7,
                        "NORMAL" : 8,
                        "TEXCOORD_0" : 9
                    },
                    "indices" : 3,
                    "material" : 2
                }
            ]
        },
        {
            "name" : "Plane.003",
            "primitives" : [
                {
                    "attributes" : {
                        "POSITION" : 10,
                        "NORMAL" : 11,
                        "TEXCOORD_0" : 12
                    },
                    "indices" : 3,
                    "material" : 3
                }
            ]
        },
        {
            "name" : "Plane.004",
            "primitives" : [
                {
                    "attributes" : {
                        "POSITION" : 13,
                        "NORMAL" : 14,
                        "TEXCOORD_0" : 15
                    },
                    "indices" : 3,
                    "material" : 4
                }
            ]
        },
        {
            "name" : "Plane.005",
            "primitives" : [
                {
                    "attributes" : {
                        "POSITION" : 16,
                        "NORMAL" : 17,
                        "TEXCOORD_0" : 18
                    },
                    "indices" : 3,
                    "material" : 5
                }
            ]
        },
        {
            "name" : "Plane.006",
            "primitives" : [
                {
                    "attributes" : {
                        "POSITION" : 19,
                        "NORMAL" : 20,
                        "TEXCOORD_0" : 21
                    },
                    "indices" : 3,
                    "material" : 6
                }
            ]
        },
        {
            "name" : "Plane.007",
            "primitives" : [
                {
                    "attributes" : {
                        "POSITION" : 22,
                        "NORMAL" : 23,
                        "TEXCOORD_0" : 24
                    },
                    "indices" : 3,
                    "material" : 7
                }
            ]
        },
        {
            "name" : "Plane.008",
            "primitives" : [
                {
                    "attributes" : {
                        "POSITION" : 25,
                        "NORMAL" : 26,
                        "TEXCOORD_0" : 27
                    },
                    "indices" : 3,
                    "material" : 8
                }
            ]
        }
    ],
    "textures" : [
        {
            "source" : 0
        },
        {
            "source" : 1
        },
        {
            "source" : 2
        },
        {
            "source" : 3
        },
        {
            "source" : 4
        },
        {
            "source" : 5
        },
        {
            "source" : 6
        },
        {
            "source" : 7
        },
        {
            "source" : 8
        }
    ],
    "images" : [
        {
            "bufferView" : 4,
            "mimeType" : "image/jpeg",
            "name" : "Untitled presentation"
        },
        {
            "bufferView" : 8,
            "mimeType" : "image/jpeg",
            "name" : "6"
        },
        {
            "bufferView" : 12,
            "mimeType" : "image/jpeg",
            "name" : "PXL_20200923_123354018.PORTRAIT-01.COVER"
        },
        {
            "bufferView" : 16,
            "mimeType" : "image/jpeg",
            "name" : "37637336_10155480297085952_4261780783783477248_n"
        },
        {
            "bufferView" : 20,
            "mimeType" : "image/jpeg",
            "name" : "74226623_10156426745850952_5868625703888486400_o"
        },
        {
            "bufferView" : 24,
            "mimeType" : "image/jpeg",
            "name" : "PXL_20201027_151327415-02"
        },
        {
            "bufferView" : 28,
            "mimeType" : "image/jpeg",
            "name" : "7"
        },
        {
            "bufferView" : 32,
            "mimeType" : "image/jpeg",
            "name" : "74216824_10156426746805952_7205160848560488448_o"
        },
        {
            "bufferView" : 36,
            "mimeType" : "image/jpeg",
            "name" : "00100sPORTRAIT_00100_BURST20200704121203185_COVER"
        }
    ],
    "accessors" : [
        {
            "bufferView" : 0,
            "componentType" : 5126,
            "count" : 4,
            "max" : [
                1,
                0,
                1
            ],
            "min" : [
                -1,
                0,
                -1
            ],
            "type" : "VEC3"
        },
        {
            "bufferView" : 1,
            "componentType" : 5126,
            "count" : 4,
            "type" : "VEC3"
        },
        {
            "bufferView" : 2,
            "componentType" : 5126,
            "count" : 4,
            "type" : "VEC2"
        },
        {
            "bufferView" : 3,
            "componentType" : 5123,
            "count" : 6,
            "type" : "SCALAR"
        },
        {
            "bufferView" : 5,
            "componentType" : 5126,
            "count" : 4,
            "max" : [
                1,
                0,
                1
            ],
            "min" : [
                -1,
                0,
                -1
            ],
            "type" : "VEC3"
        },
        {
            "bufferView" : 6,
            "componentType" : 5126,
            "count" : 4,
            "type" : "VEC3"
        },
        {
            "bufferView" : 7,
            "componentType" : 5126,
            "count" : 4,
            "type" : "VEC2"
        },
        {
            "bufferView" : 9,
            "componentType" : 5126,
            "count" : 4,
            "max" : [
                1,
                0,
                1
            ],
            "min" : [
                -1,
                0,
                -1
            ],
            "type" : "VEC3"
        },
        {
            "bufferView" : 10,
            "componentType" : 5126,
            "count" : 4,
            "type" : "VEC3"
        },
        {
            "bufferView" : 11,
            "componentType" : 5126,
            "count" : 4,
            "type" : "VEC2"
        },
        {
            "bufferView" : 13,
            "componentType" : 5126,
            "count" : 4,
            "max" : [
                1,
                0,
                1
            ],
            "min" : [
                -1,
                0,
                -1
            ],
            "type" : "VEC3"
        },
        {
            "bufferView" : 14,
            "componentType" : 5126,
            "count" : 4,
            "type" : "VEC3"
        },
        {
            "bufferView" : 15,
            "componentType" : 5126,
            "count" : 4,
            "type" : "VEC2"
        },
        {
            "bufferView" : 17,
            "componentType" : 5126,
            "count" : 4,
            "max" : [
                1,
                0,
                1
            ],
            "min" : [
                -1,
                0,
                -1
            ],
            "type" : "VEC3"
        },
        {
            "bufferView" : 18,
            "componentType" : 5126,
            "count" : 4,
            "type" : "VEC3"
        },
        {
            "bufferView" : 19,
            "componentType" : 5126,
            "count" : 4,
            "type" : "VEC2"
        },
        {
            "bufferView" : 21,
            "componentType" : 5126,
            "count" : 4,
            "max" : [
                1,
                0,
                1
            ],
            "min" : [
                -1,
                0,
                -1
            ],
            "type" : "VEC3"
        },
        {
            "bufferView" : 22,
            "componentType" : 5126,
            "count" : 4,
            "type" : "VEC3"
        },
        {
            "bufferView" : 23,
            "componentType" : 5126,
            "count" : 4,
            "type" : "VEC2"
        },
        {
            "bufferView" : 25,
            "componentType" : 5126,
            "count" : 4,
            "max" : [
                1,
                0,
                1
            ],
            "min" : [
                -1,
                0,
                -1
            ],
            "type" : "VEC3"
        },
        {
            "bufferView" : 26,
            "componentType" : 5126,
            "count" : 4,
            "type" : "VEC3"
        },
        {
            "bufferView" : 27,
            "componentType" : 5126,
            "count" : 4,
            "type" : "VEC2"
        },
        {
            "bufferView" : 29,
            "componentType" : 5126,
            "count" : 4,
            "max" : [
                1,
                0,
                1
            ],
            "min" : [
                -1,
                0,
                -1
            ],
            "type" : "VEC3"
        },
        {
            "bufferView" : 30,
            "componentType" : 5126,
            "count" : 4,
            "type" : "VEC3"
        },
        {
            "bufferView" : 31,
            "componentType" : 5126,
            "count" : 4,
            "type" : "VEC2"
        },
        {
            "bufferView" : 33,
            "componentType" : 5126,
            "count" : 4,
            "max" : [
                1,
                0,
                1
            ],
            "min" : [
                -1,
                0,
                -1
            ],
            "type" : "VEC3"
        },
        {
            "bufferView" : 34,
            "componentType" : 5126,
            "count" : 4,
            "type" : "VEC3"
        },
        {
            "bufferView" : 35,
            "componentType" : 5126,
            "count" : 4,
            "type" : "VEC2"
        }
    ],
    "bufferViews" : [
        {
            "buffer" : 0,
            "byteLength" : 48,
            "byteOffset" : 0
        },
        {
            "buffer" : 0,
            "byteLength" : 48,
            "byteOffset" : 48
        },
        {
            "buffer" : 0,
            "byteLength" : 32,
            "byteOffset" : 96
        },
        {
            "buffer" : 0,
            "byteLength" : 12,
            "byteOffset" : 128
        },
        {
            "buffer" : 0,
            "byteLength" : 19234,
            "byteOffset" : 140
        },
        {
            "buffer" : 0,
            "byteLength" : 48,
            "byteOffset" : 19376
        },
        {
            "buffer" : 0,
            "byteLength" : 48,
            "byteOffset" : 19424
        },
        {
            "buffer" : 0,
            "byteLength" : 32,
            "byteOffset" : 19472
        },
        {
            "buffer" : 0,
            "byteLength" : 73360,
            "byteOffset" : 19504
        },
        {
            "buffer" : 0,
            "byteLength" : 48,
            "byteOffset" : 92864
        },
        {
            "buffer" : 0,
            "byteLength" : 48,
            "byteOffset" : 92912
        },
        {
            "buffer" : 0,
            "byteLength" : 32,
            "byteOffset" : 92960
        },
        {
            "buffer" : 0,
            "byteLength" : 108795,
            "byteOffset" : 92992
        },
        {
            "buffer" : 0,
            "byteLength" : 48,
            "byteOffset" : 201788
        },
        {
            "buffer" : 0,
            "byteLength" : 48,
            "byteOffset" : 201836
        },
        {
            "buffer" : 0,
            "byteLength" : 32,
            "byteOffset" : 201884
        },
        {
            "buffer" : 0,
            "byteLength" : 62436,
            "byteOffset" : 201916
        },
        {
            "buffer" : 0,
            "byteLength" : 48,
            "byteOffset" : 264352
        },
        {
            "buffer" : 0,
            "byteLength" : 48,
            "byteOffset" : 264400
        },
        {
            "buffer" : 0,
            "byteLength" : 32,
            "byteOffset" : 264448
        },
        {
            "buffer" : 0,
            "byteLength" : 53682,
            "byteOffset" : 264480
        },
        {
            "buffer" : 0,
            "byteLength" : 48,
            "byteOffset" : 318164
        },
        {
            "buffer" : 0,
            "byteLength" : 48,
            "byteOffset" : 318212
        },
        {
            "buffer" : 0,
            "byteLength" : 32,
            "byteOffset" : 318260
        },
        {
            "buffer" : 0,
            "byteLength" : 98481,
            "byteOffset" : 318292
        },
        {
            "buffer" : 0,
            "byteLength" : 48,
            "byteOffset" : 416776
        },
        {
            "buffer" : 0,
            "byteLength" : 48,
            "byteOffset" : 416824
        },
        {
            "buffer" : 0,
            "byteLength" : 32,
            "byteOffset" : 416872
        },
        {
            "buffer" : 0,
            "byteLength" : 69767,
            "byteOffset" : 416904
        },
        {
            "buffer" : 0,
            "byteLength" : 48,
            "byteOffset" : 486672
        },
        {
            "buffer" : 0,
            "byteLength" : 48,
            "byteOffset" : 486720
        },
        {
            "buffer" : 0,
            "byteLength" : 32,
            "byteOffset" : 486768
        },
        {
            "buffer" : 0,
            "byteLength" : 113311,
            "byteOffset" : 486800
        },
        {
            "buffer" : 0,
            "byteLength" : 48,
            "byteOffset" : 600112
        },
        {
            "buffer" : 0,
            "byteLength" : 48,
            "byteOffset" : 600160
        },
        {
            "buffer" : 0,
            "byteLength" : 32,
            "byteOffset" : 600208
        },
        {
            "buffer" : 0,
            "byteLength" : 30080,
            "byteOffset" : 600240
        }
    ],
    "buffers" : [
        {
            "byteLength" : 630320,
            "uri" : "data:application/octet-stream;base64,"
        }
    ]
}
